<svg width="212" height="234" viewBox="0 0 212 234" fill="none" xmlns="http://www.w3.org/2000/svg">
<path d="M60.4683 68.7322V232.352C60.4683 233.143 61.1349 233.779 61.9546 233.779H152.029C152.848 233.779 153.515 233.143 153.515 232.352V68.7322C153.515 67.9419 152.848 67.3053 152.029 67.3053H61.9546C61.1349 67.3053 60.4683 67.9419 60.4683 68.7322ZM127.57 220.312H86.402C79.8229 220.312 74.4897 215.186 74.4897 208.875V92.221C74.4897 85.8988 79.8229 80.7839 86.402 80.7839H127.57C134.149 80.7839 139.483 85.9097 139.483 92.221V208.875C139.483 215.197 134.149 220.312 127.57 220.312Z" fill="#6B122E"/>
<path d="M2.67743 150.46V232.352C2.67743 233.143 3.30037 233.779 4.06537 233.779H50.5559C51.3209 233.779 51.9439 233.143 51.9439 232.352V150.46C51.9439 149.67 51.3209 149.033 50.5559 149.033H4.05445C3.28944 149.033 2.6665 149.67 2.6665 150.46H2.67743ZM31.1685 220.312H23.4419C19.1797 220.312 15.7153 216.744 15.7153 212.332V170.469C15.7153 166.068 19.1688 162.49 23.4419 162.49H31.1685C35.4307 162.49 38.8951 166.057 38.8951 170.469V212.332C38.8951 216.733 35.4416 220.312 31.1685 220.312Z" fill="#6B122E"/>
<path d="M84.8066 150.526V202.091C84.8066 202.86 85.4296 203.485 86.1946 203.485H127.713C128.478 203.485 129.101 202.86 129.101 202.091V159.318H129.177V150.537C129.177 149.768 128.554 149.143 127.789 149.143H86.1946C85.4296 149.143 84.8066 149.768 84.8066 150.537V150.526ZM113.32 193.289H100.588C97.473 193.289 94.9484 190.753 94.9484 187.625V164.97C94.9484 161.842 97.473 159.307 100.588 159.307H113.32C116.434 159.307 118.959 161.842 118.959 164.97V187.625C118.959 190.753 116.434 193.289 113.32 193.289Z" fill="#6B122E"/>
<path d="M125.134 128.442V102.692C125.134 101.924 124.511 101.298 123.746 101.298H98.4348H89.6918C88.9268 101.298 88.3039 101.924 88.3039 102.692V128.453H88.293V137.234C88.293 138.002 88.9159 138.628 89.6809 138.628H123.855C124.62 138.628 125.243 138.002 125.243 137.234V128.453H125.144L125.134 128.442ZM102.937 111.473H110.511C112.992 111.473 115.003 113.493 115.003 115.984V123.92C115.003 126.411 112.992 128.431 110.511 128.431H102.937C100.457 128.431 98.4457 126.411 98.4457 123.92V115.984C98.4457 113.493 100.457 111.473 102.937 111.473Z" fill="#6B122E"/>
<path d="M128.196 54.8364L133.715 54.8804C135.507 54.8694 137.311 54.3864 137.923 52.6742C143.081 38.1748 157.791 29.4268 172.982 32.0062C178.271 32.9063 183.047 35.1564 187.08 38.2626C189.965 40.4907 193.167 44.5738 193.593 45.1885C197.681 51.0607 199.812 58.3159 199.167 65.9442C199.112 66.5699 199.047 67.1845 198.959 67.7992C198.708 69.5663 197.189 70.8725 195.407 70.8725H194.326C192.347 70.8725 190.741 72.486 190.741 74.4726V83.6596H190.686C186.293 90.7611 179.277 94.01 170.851 94.8552C169.037 95.0418 167.671 96.5894 167.671 98.4224V103.296C167.671 105.425 169.507 107.061 171.627 106.874C192.304 105.063 209.123 88.533 211.068 67.3821L211.221 66.4601C211.254 66.2406 211.276 66.0211 211.265 65.8015L211.167 60.3684C209.91 40.8639 195.921 24.9376 177.605 20.646C175.987 20.2618 174.829 18.824 174.829 17.1556V3.60015C174.829 1.61348 173.222 0 171.244 0H165.354C163.376 0 161.769 1.61348 161.769 3.60015V16.8922C161.769 18.6154 160.545 20.0752 158.873 20.4155C143.868 23.4998 130.71 35.4637 125.661 50.1606C124.972 52.1693 126.131 54.3315 128.185 54.8474L128.196 54.8364Z" fill="#6B122E"/>
<path d="M163.745 66.4137H173.231C174.577 66.4137 175.668 67.5096 175.668 68.8614V78.3886C175.668 79.7404 174.577 80.8363 173.231 80.8363H163.745C162.399 80.8363 161.308 79.7404 161.308 78.3886V68.8614C161.308 67.5096 162.399 66.4137 163.745 66.4137Z" fill="#6B122E"/>
<path d="M178.258 52.2108H185.766C187.661 52.2108 189.198 53.7538 189.198 55.6572V63.1868C189.198 65.0903 187.661 66.6333 185.766 66.6333H178.258C176.363 66.6333 174.826 65.0903 174.826 63.1868V55.6572C174.826 53.7538 176.363 52.2108 178.258 52.2108Z" fill="#6B122E"/>
</svg>
